<?xml version="1.0" standalone="no"?>
<!DOCTYPE svg PUBLIC "-//W3C//DTD SVG 20010904//EN"
 "http://www.w3.org/TR/2001/REC-SVG-20010904/DTD/svg10.dtd">
<svg version="1.0" xmlns="http://www.w3.org/2000/svg"
 width="24.000000pt" height="24.000000pt" viewBox="0 0 24.000000 24.000000"
 preserveAspectRatio="xMidYMid meet">

<g transform="translate(0.000000,24.000000) scale(0.100000,-0.100000)"
fill="#000000" stroke="none">
<path d="M66 171 c-14 -16 -17 -24 -8 -33 8 -8 8 -15 -1 -29 -9 -14 -7 -22 7
-37 9 -11 26 -22 37 -25 15 -4 12 2 -11 23 -31 29 -37 40 -21 40 5 0 13 -9 16
-20 4 -11 11 -17 17 -14 6 4 6 10 -1 17 -16 16 -13 27 4 21 8 -4 15 -14 15
-24 0 -11 5 -22 10 -25 22 -14 8 36 -14 51 -16 10 -26 27 -28 46 l-3 30 -19
-21z"/>
<path d="M155 69 c-11 -17 1 -21 15 -4 8 9 8 15 2 15 -6 0 -14 -5 -17 -11z"/>
</g>
</svg>
